<?xml version="1.0" encoding="utf-8"?>
<!-- Generator: Adobe Illustrator 26.5.0, SVG Export Plug-In . SVG Version: 6.00 Build 0)  -->
<svg version="1.1" id="레이어_1" xmlns="http://www.w3.org/2000/svg" xmlns:xlink="http://www.w3.org/1999/xlink" x="0px"
	 y="0px" viewBox="0 0 53.1 53.8" style="enable-background:new 0 0 53.1 53.8;" xml:space="preserve">
<style type="text/css">
	.st0{fill-rule:evenodd;clip-rule:evenodd;fill:#003366;}
</style>
<g>
	<path class="st0" d="M36.5,35.8c0,1.4-1.1,2.5-2.5,2.5s-2.5-1.1-2.5-2.5c0-1.4,1.1-2.5,2.5-2.5C35.4,33.3,36.5,34.4,36.5,35.8z"/>
	<path class="st0" d="M34.2,18.8c-1.1,0-2,0.7-2.3,1.7h-4.1c-0.3-1-1.2-1.7-2.3-1.7c-1.4,0-2.5,1.1-2.5,2.5s1.1,2.5,2.5,2.5
		c1,0,1.9-0.6,2.3-1.5h4.2c0.4,0.9,1.3,1.5,2.3,1.5c1.4,0,2.5-1.1,2.5-2.5C36.7,19.9,35.6,18.8,34.2,18.8z"/>
	<path class="st0" d="M19.4,33.3v-3.5c1-0.3,1.6-1.2,1.6-2.3c0-1.4-1.1-2.5-2.5-2.5c-1.4,0-2.5,1.1-2.5,2.5c0,1,0.6,1.9,1.5,2.3v3.6
		c-0.9,0.4-1.5,1.2-1.5,2.3c0,1.4,1.1,2.5,2.5,2.5c1.4,0,2.5-1.1,2.5-2.5C21,34.6,20.4,33.7,19.4,33.3z"/>
	<path class="st0" d="M25.4,25.2c-0.4,0-0.7,0.1-1,0.2l-3.6-3.4c0.1-0.3,0.2-0.6,0.2-1c0-1.4-1.1-2.5-2.5-2.5s-2.5,1.1-2.5,2.5
		c0,1.4,1.1,2.5,2.5,2.5c0.4,0,0.7-0.1,1-0.2l3.5,3.4c-0.1,0.3-0.2,0.7-0.2,1c0,1.4,1.1,2.5,2.5,2.5s2.5-1.1,2.5-2.5
		C27.8,26.3,26.7,25.2,25.4,25.2z"/>
	<path class="st0" d="M34.1,25.1c-1.4,0-2.5,1.1-2.5,2.5c0,0.3,0.1,0.7,0.2,1l-5.3,4.8c-0.3-0.1-0.6-0.2-1-0.2
		c-1.4,0-2.5,1.1-2.5,2.5c0,1.4,1.1,2.5,2.5,2.5c1.4,0,2.5-1.1,2.5-2.5c0-0.4-0.1-0.7-0.2-1.1l5.2-4.7c0.3,0.1,0.7,0.2,1,0.2
		c1.4,0,2.5-1.1,2.5-2.5C36.5,26.2,35.4,25.1,34.1,25.1z"/>
</g>
</svg>
