<?xml version="1.0" encoding="utf-8"?>
<!-- Generator: Adobe Illustrator 26.5.0, SVG Export Plug-In . SVG Version: 6.00 Build 0)  -->
<svg version="1.1" id="레이어_1" xmlns="http://www.w3.org/2000/svg" xmlns:xlink="http://www.w3.org/1999/xlink" x="0px"
	 y="0px" viewBox="0 0 53.14 53.84" style="enable-background:new 0 0 53.14 53.84;" xml:space="preserve">
<style type="text/css">
	.st0{fill-rule:evenodd;clip-rule:evenodd;fill:#FFFFFF;}
</style>
<g>
	<path class="st0" d="M36.54,35.77c0,1.36-1.1,2.45-2.46,2.45c-1.36,0-2.46-1.1-2.46-2.45c0-1.36,1.1-2.46,2.46-2.46
		C35.44,33.31,36.54,34.41,36.54,35.77z"/>
	<path class="st0" d="M34.22,18.76c-1.08,0-1.99,0.7-2.32,1.67h-4.15c-0.33-0.97-1.24-1.67-2.32-1.67c-1.36,0-2.46,1.1-2.46,2.46
		c0,1.36,1.1,2.45,2.46,2.45c1.02,0,1.89-0.62,2.26-1.51h4.25c0.37,0.88,1.25,1.51,2.26,1.51c1.36,0,2.46-1.1,2.46-2.45
		C36.68,19.86,35.58,18.76,34.22,18.76z"/>
	<path class="st0" d="M19.4,33.32v-3.51c0.96-0.34,1.65-1.24,1.65-2.31c0-1.36-1.1-2.46-2.46-2.46c-1.36,0-2.46,1.1-2.46,2.46
		c0,1.03,0.63,1.91,1.53,2.27v3.58c-0.9,0.37-1.53,1.24-1.53,2.27c0,1.36,1.1,2.46,2.46,2.46c1.36,0,2.46-1.1,2.46-2.46
		C21.05,34.56,20.35,33.66,19.4,33.32z"/>
	<path class="st0" d="M25.39,25.24c-0.35,0-0.68,0.08-0.98,0.21l-3.58-3.39c0.13-0.3,0.2-0.62,0.2-0.96c0-1.36-1.1-2.46-2.46-2.46
		c-1.36,0-2.46,1.1-2.46,2.46c0,1.36,1.1,2.46,2.46,2.46c0.38,0,0.73-0.09,1.05-0.25l3.55,3.36c-0.15,0.31-0.24,0.66-0.24,1.03
		c0,1.36,1.1,2.46,2.46,2.46c1.36,0,2.45-1.1,2.45-2.46C27.84,26.34,26.74,25.24,25.39,25.24z"/>
	<path class="st0" d="M34.08,25.1c-1.36,0-2.46,1.1-2.46,2.46c0,0.34,0.07,0.67,0.2,0.97l-5.29,4.79c-0.29-0.12-0.62-0.19-0.95-0.19
		c-1.36,0-2.46,1.1-2.46,2.45c0,1.36,1.1,2.46,2.46,2.46c1.36,0,2.46-1.1,2.46-2.46c0-0.38-0.09-0.74-0.25-1.06l5.24-4.74
		c0.32,0.15,0.67,0.25,1.05,0.25c1.36,0,2.46-1.1,2.46-2.46C36.54,26.2,35.44,25.1,34.08,25.1z"/>
</g>
</svg>
